<?xml version="1.0" encoding="UTF-8" standalone="no"?>
<!-- Created with Inkscape (http://www.inkscape.org/) -->

<svg
   version="1.1"
   id="svg2"
   xml:space="preserve"
   width="1000"
   height="666.66669"
   viewBox="0 0 1000 666.66669"
   sodipodi:docname="LOGO.ai.svg"
   inkscape:version="1.1 (1:1.1+202105261517+ce6663b3b7)"
   xmlns:inkscape="http://www.inkscape.org/namespaces/inkscape"
   xmlns:sodipodi="http://sodipodi.sourceforge.net/DTD/sodipodi-0.dtd"
   xmlns="http://www.w3.org/2000/svg"
   xmlns:svg="http://www.w3.org/2000/svg"><defs
     id="defs6"><rect
       x="366.45191"
       y="130.63285"
       width="28.519789"
       height="30.300714"
       id="rect55208" /><clipPath
       clipPathUnits="userSpaceOnUse"
       id="clipPath18"><path
         d="M 0,500 H 750 V 0 H 0 Z"
         id="path16" /></clipPath><clipPath
       clipPathUnits="userSpaceOnUse"
       id="clipPath38"><path
         d="M 0,500 H 750 V 0 H 0 Z"
         id="path36" /></clipPath><clipPath
       clipPathUnits="userSpaceOnUse"
       id="clipPath58"><path
         d="M 0,500 H 750 V 0 H 0 Z"
         id="path56" /></clipPath><clipPath
       clipPathUnits="userSpaceOnUse"
       id="clipPath98"><path
         d="M 0,500 H 750 V 0 H 0 Z"
         id="path96" /></clipPath><clipPath
       clipPathUnits="userSpaceOnUse"
       id="clipPath118"><path
         d="M 0,500 H 750 V 0 H 0 Z"
         id="path116" /></clipPath><clipPath
       clipPathUnits="userSpaceOnUse"
       id="clipPath156"><path
         d="M 0,500 H 750 V 0 H 0 Z"
         id="path154" /></clipPath><clipPath
       clipPathUnits="userSpaceOnUse"
       id="clipPath157763"><ellipse
         style="fill:#808080;stroke-width:0.75"
         id="ellipse157765"
         cx="391.47043"
         cy="-265.99109"
         rx="226.00392"
         ry="104.92403"
         transform="scale(1,-1)" /></clipPath></defs><sodipodi:namedview
     id="namedview4"
     pagecolor="#ffffff"
     bordercolor="#666666"
     borderopacity="1.0"
     inkscape:pageshadow="2"
     inkscape:pageopacity="0.0"
     inkscape:pagecheckerboard="0"
     showgrid="false"
     inkscape:zoom="1.2285"
     inkscape:cx="571.42859"
     inkscape:cy="317.05333"
     inkscape:window-width="1920"
     inkscape:window-height="1056"
     inkscape:window-x="0"
     inkscape:window-y="24"
     inkscape:window-maximized="1"
     inkscape:current-layer="g8"
     showguides="true"
     inkscape:guide-bbox="true"><sodipodi:guide
       position="485.9585,689.45871"
       orientation="0,-1"
       id="guide157633" /></sodipodi:namedview><g
     id="g8"
     inkscape:groupmode="layer"
     inkscape:label="5350909"
     transform="matrix(1.3333333,0,0,-1.3333333,0,666.66667)"><g
       id="g157657"
       clip-path="url(#clipPath157763)"
       transform="translate(-2.3734198,30.779271)"><path
         d="M 1.0385852,0.10738909 H 751.03858 V 500.10739 H 1.0385852 Z"
         style="fill:#efebe9;fill-opacity:1;fill-rule:nonzero;stroke:none"
         id="path10" /><text
         transform="scale(1,-1)"
         style="font-variant:normal;font-weight:normal;font-stretch:normal;font-size:95.7832px;font-family:'Squada One';-inkscape-font-specification:SquadaOne-Regular;letter-spacing:4.5px;writing-mode:lr-tb;fill:#d84315;fill-opacity:1;fill-rule:nonzero;stroke:none"
         id="text110"
         x="198.908"
         y="-252.75494"><tspan
           sodipodi:role="line"
           id="tspan108"
           x="198.908"
           y="-252.75494">CHīTā</tspan></text><g
         id="g120"
         transform="translate(570.56087,246.71797)"><path
           d="m 0,0 c -0.115,-2.599 -0.662,-5.091 -1.613,-7.364 h 19.305 c 1.048,0 1.303,2.971 1.108,7.364 z"
           style="fill:#263238;fill-opacity:1;fill-rule:nonzero;stroke:none"
           id="path122" /></g><g
         id="g124"
         transform="translate(511.53057,246.71797)"><path
           d="M 0,0 V -7.364 H 17.481 C 16.52,-5.091 15.972,-2.599 15.855,0 Z"
           style="fill:#263238;fill-opacity:1;fill-rule:nonzero;stroke:none"
           id="path126" /></g><path
         d="M 500.93637,246.71747 H 207.41771 v -6.82 h 293.51866 z"
         style="fill:#263238;fill-opacity:1;fill-rule:nonzero;stroke:none;stroke-width:1.11574"
         id="path128" /><g
         id="g130"
         transform="translate(517.10967,307.35757)"><path
           d="m 0,0 h 20.596 c 2.429,0 4.765,-1.208 5.963,-3.324 0,-0.023 0.011,-0.034 0.011,-0.046 l 8.775,-15.633 H 6.98 c -3.855,0 -6.98,3.125 -6.98,6.981 z m 10.533,-56.191 c 1.669,10.289 10.576,18.15 21.337,18.15 10.75,0 19.655,-7.861 21.324,-18.15 h 18.755 c -1.123,13.002 -4.468,32.086 -4.468,32.086 -0.813,1.406 -2.324,2.278 -3.951,2.278 l -21.013,2.324 -9.578,17.098 C 30.661,1.65 26.372,4.173 21.723,4.173 H -5.579 v -60.364 z"
           style="fill:#263238;fill-opacity:1;fill-rule:nonzero;stroke:none"
           id="path132" /></g><g
         id="g134"
         transform="translate(548.97687,239.34687)"><path
           d="m 0,0 c -4.607,0 -8.336,3.738 -8.336,8.347 0,4.596 3.729,8.335 8.336,8.335 4.607,0 8.335,-3.739 8.335,-8.335 C 8.335,3.738 4.607,0 0,0 m 0,25.348 c -9.392,0 -17.012,-7.611 -17.012,-17.001 0,-9.392 7.62,-17.013 17.012,-17.013 9.391,0 17.001,7.621 17.001,17.013 0,9.39 -7.61,17.001 -17.001,17.001"
           style="fill:#263238;fill-opacity:1;fill-rule:nonzero;stroke:none"
           id="path136" /></g><g
         id="g138"
         transform="translate(510.06187,327.98647)"><path
           d="m 0,0 c 0,5.648 -4.597,10.245 -10.245,10.245 h -20.481 l 5.658,-5.498 h 14.823 c 2.617,0 4.747,-2.13 4.747,-4.747 V -2.519 H 0 Z"
           style="fill:#263238;fill-opacity:1;fill-rule:nonzero;stroke:none"
           id="path140" /></g><path
         d="m 512.03937,324.63947 h -9.454 v -10.225 h 9.454 z"
         style="fill:#263238;fill-opacity:1;fill-rule:nonzero;stroke:none"
         id="path142" /><path
         d="m 504.56337,239.29047 h 5.498 v 74.297 h -5.498 z"
         style="fill:#263238;fill-opacity:1;fill-rule:nonzero;stroke:none"
         id="path144" /><text
         transform="scale(1,-1)"
         style="font-variant:normal;font-weight:600;font-stretch:normal;font-size:13px;font-family:'Montserrat SemiBold';-inkscape-font-specification:Montserrat-SemiBold;letter-spacing:1.125px;writing-mode:lr-tb;fill:#263238;fill-opacity:1;fill-rule:nonzero;stroke:none"
         id="text148"
         x="207.6716"
         y="-225.3745"><tspan
           sodipodi:role="line"
           id="tspan146"
           x="207.6716"
           y="-225.3745"
           style="font-size:13px"
           dx="0">TRANSPORT MANAGEMENT SYSTEM</tspan></text><g
         id="g150"
         transform="translate(-111.11063,129.00047)"><g
           id="g152"
           clip-path="url(#clipPath156)"><g
             id="g158"
             transform="translate(672.3121,152.3474)"><path
               d="m 0,0 v 0 c -0.728,0 -1.316,0.59 -1.316,1.316 v 16.215 c 0,0.727 0.588,1.316 1.316,1.316 0.727,0 1.315,-0.589 1.315,-1.316 V 1.316 C 1.315,0.59 0.727,0 0,0"
               style="fill:#263238;fill-opacity:1;fill-rule:nonzero;stroke:none"
               id="path160" /></g></g></g></g><text
       xml:space="preserve"
       transform="matrix(0.75000002,0,0,-0.75000002,0,500.00002)"
       id="text55206"
       style="line-height:1.25;font-family:sans-serif;font-size:11.17333333px;white-space:pre;shape-inside:url(#rect55208)" /></g></svg>
